<?xml version="1.0" standalone="no"?>
<!DOCTYPE svg PUBLIC "-//W3C//DTD SVG 20010904//EN"
 "http://www.w3.org/TR/2001/REC-SVG-20010904/DTD/svg10.dtd">
<svg version="1.0" xmlns="http://www.w3.org/2000/svg"
 width="334.000000pt" height="334.000000pt" viewBox="0 0 334.000000 334.000000"
 preserveAspectRatio="xMidYMid meet">

<g transform="translate(0.000000,334.000000) scale(0.100000,-0.100000)"
fill="#000000" stroke="none">
<path d="M1490 2560 c-135 -13 -235 -42 -350 -100 -221 -114 -297 -187 -474
-452 -180 -272 -302 -414 -386 -451 -59 -26 -80 -45 -80 -74 0 -60 54 -93 151
-93 78 0 193 -32 285 -78 79 -39 244 -151 244 -165 0 -5 -11 -23 -24 -40 -38
-49 -98 -183 -94 -209 2 -18 10 -24 34 -26 25 -2 47 9 111 57 44 32 95 77 112
98 l32 40 127 -43 c115 -39 296 -82 412 -98 l45 -6 17 -105 c20 -124 38 -165
73 -165 17 0 29 9 39 28 18 35 56 181 56 215 0 23 5 26 53 32 151 20 402 82
502 125 l45 19 47 -50 c77 -82 173 -150 208 -147 26 3 30 8 33 34 4 37 -31
117 -81 191 l-35 53 76 56 c157 114 313 179 452 186 86 5 128 22 149 59 25 44
9 73 -56 101 -97 42 -222 187 -416 480 -92 139 -210 281 -266 321 -96 68 -339
166 -471 191 -102 20 -433 29 -570 16z m540 -113 c127 -30 242 -71 290 -101
19 -13 57 -35 84 -51 114 -65 250 -224 336 -396 18 -35 56 -100 85 -145 75
-115 96 -160 102 -219 5 -47 3 -55 -23 -82 -21 -22 -53 -38 -114 -57 -47 -15
-103 -38 -125 -51 -81 -50 -342 -173 -420 -198 -185 -59 -324 -80 -514 -79
-299 2 -551 72 -840 231 -41 23 -79 45 -85 50 -6 5 -58 24 -115 42 -120 40
-147 64 -144 136 2 53 26 106 96 216 32 48 69 111 83 140 107 213 231 351 394
440 76 42 275 109 404 137 129 28 357 22 506 -13z"/>
<path d="M1666 1966 c-165 -61 -183 -297 -27 -378 171 -89 352 58 300 245 -30
109 -161 173 -273 133z"/>
</g>
</svg>
